<?xml version="1.0" encoding="utf-8"?>
<svg viewBox="0 0 24 24" fill="currentColor" xmlns="http://www.w3.org/2000/svg">
  <g>
    <path fill-rule="evenodd" d="m11.54 22.351.07.04.028.016a.76.76 0 0 0 .723 0l.028-.015.071-.041a16.975 16.975 0 0 0 1.144-.742 19.58 19.58 0 0 0 2.683-2.282c1.944-1.99 3.963-4.98 3.963-8.827a8.25 8.25 0 0 0-16.5 0c0 3.846 2.02 6.837 3.963 8.827a19.58 19.58 0 0 0 2.682 2.282 16.975 16.975 0 0 0 1.145.742ZM12 13.5a3 3 0 1 0 0-6 3 3 0 0 0 0 6Z" clip-rule="evenodd" style="stroke: rgb(0, 0, 0); fill: rgb(166, 239, 255);"/>
  </g>
  <ellipse style="fill: rgb(166, 239, 255); stroke: rgba(0, 0, 0, 0);" cx="12.168" cy="10.55" rx="4.267" ry="5.125"/>
  <path d="M 10.879 7.56 C 11.629 7.56 12.098 6.744 11.723 6.091 C 11.549 5.788 11.227 5.601 10.879 5.601 C 10.128 5.601 9.66 6.417 10.035 7.07 C 10.209 7.373 10.531 7.56 10.879 7.56 Z M 9.427 10.645 C 9.679 10.55 9.807 10.268 9.711 10.015 C 9.616 9.761 9.336 9.633 9.084 9.729 C 7.856 10.194 6.981 11.386 6.981 12.784 C 6.981 14.587 8.435 16.049 10.229 16.049 C 11.471 16.049 12.549 15.349 13.095 14.32 C 13.222 14.082 13.132 13.786 12.895 13.657 C 12.657 13.529 12.362 13.62 12.235 13.859 C 11.853 14.58 11.098 15.069 10.229 15.069 C 8.973 15.069 7.956 14.047 7.956 12.784 C 7.956 11.807 8.566 10.972 9.427 10.645 Z M 12.255 9.193 L 12.217 8.995 C 12.125 8.54 11.729 8.213 11.267 8.213 C 10.656 8.213 10.197 8.774 10.316 9.376 L 10.785 11.733 C 10.908 12.343 11.439 12.781 12.06 12.781 L 12.164 12.781 C 12.172 12.781 12.18 12.781 12.19 12.781 L 14.1 12.781 C 14.236 12.781 14.356 12.865 14.405 12.994 L 15.142 14.972 C 15.264 15.3 15.625 15.473 15.956 15.361 L 16.93 15.035 C 17.272 14.92 17.454 14.551 17.34 14.208 C 17.227 13.865 16.859 13.682 16.518 13.796 L 16.138 13.923 L 15.621 12.535 C 15.384 11.898 14.776 11.476 14.1 11.476 L 12.71 11.476 L 12.515 10.496 L 13.802 10.496 C 14.162 10.496 14.452 10.205 14.452 9.843 C 14.452 9.482 14.162 9.19 13.802 9.19 L 12.255 9.19 L 12.255 9.193 Z" style="fill: rgba(0, 0, 0, 0.8);"/>
</svg>